#N canvas 112 766 651 532 12;
#X msg 213 239 close;
#X msg 143 239 devices;
#X obj 299 15 vsl 19 162 0 254 0 0 empty empty empty 0 -9 0 12 #fcfcfc #000000 #000000 0 1;
#X obj 141 16 vsl 19 162 0 254 0 0 empty empty empty 0 -9 0 12 #fcfcfc #000000 #000000 0 1;
#X obj 299 185 s rightIn;
#X obj 141 186 s leftIn;
#X text 165 80 wind control bytes;
#X text 24 471 Change this so that left id == 1 \, right id == 2 \, and knock detect id == 0, f 79;
#X obj 513 259 r knockIn;
#X text 517 280 into DAClessHit;
#N canvas 1062 178 652 800 routeCOMport 0;
#X obj 121 166 print;
#X obj 104 398 spigot;
#X obj 143 367 tgl 19 0 empty empty empty 0 -10 0 12 #fcfcfc #000000 #000000 0 1;
#X obj 212 400 spigot;
#X obj 251 366 tgl 19 0 empty empty empty 0 -10 0 12 #fcfcfc #000000 #000000 0 1;
#X obj 110 139 serial_print;
#X obj 182 366 r rightIn;
#X obj 81 367 r leftIn;
#X floatatom 104 422 5 0 0 0 - - - 0;
#X floatatom 212 424 5 0 0 0 - - - 0;
#X msg 165 297 print G;
#X text 147 317 send char 'G' to arduino to connect;
#X obj 64 288 tgl 20 0 empty empty empty 0 -10 0 12 #fcfcfc #000000 #000000 0 1;
#X obj 25 313 spigot;
#X obj 25 338 s knockIn;
#X obj 170 99 spigot;
#X obj 209 73 tgl 20 0 empty empty empty 0 -10 0 12 #fcfcfc #000000 #000000 0 1;
#X msg 209 49 0;
#X obj 251 50 loadbang;
#X text 40 535 Change this so that left id == 1 \, right id == 2 \, and knock detect id == 0, f 79;
#X obj 75 43 inlet;
#X obj 212 475 outlet;
#X obj 104 478 outlet;
#X text 60 497 values from winds;
#X obj 110 232 select 0 1 2;
#X text 265 478 to comport;
#X obj 64 260 t b b b;
#X obj 143 260 t b b b;
#X obj 251 263 t b b b;
#X text 188 29 turn off ID check once found;
#X connect 1 0 8 0;
#X connect 2 0 1 1;
#X connect 3 0 9 0;
#X connect 4 0 3 1;
#X connect 5 0 0 0;
#X connect 5 0 24 0;
#X connect 6 0 3 0;
#X connect 7 0 1 0;
#X connect 8 0 22 0;
#X connect 8 0 21 0;
#X connect 9 0 22 0;
#X connect 9 0 21 0;
#X connect 10 0 21 0;
#X connect 12 0 13 1;
#X connect 13 0 14 0;
#X connect 15 0 5 0;
#X connect 16 0 15 1;
#X connect 17 0 16 0;
#X connect 18 0 16 0;
#X connect 20 0 15 0;
#X connect 20 0 13 0;
#X connect 24 0 26 0;
#X connect 24 1 27 0;
#X connect 24 2 28 0;
#X connect 26 0 12 0;
#X connect 26 1 10 0;
#X connect 26 2 17 0;
#X connect 27 0 2 0;
#X connect 27 1 10 0;
#X connect 27 2 17 0;
#X connect 28 0 4 0;
#X connect 28 1 10 0;
#X connect 28 2 17 0;
#X restore 324 298 pd routeCOMport;
#X floatatom 324 323 5 0 0 0 - - - 0;
#X floatatom 29 432 5 0 0 0 - - - 0;
#X floatatom 213 433 5 0 0 0 - - - 0;
#X obj 486 341 list prepend;
#X obj 486 363 list trim;
#X floatatom 486 408 5 0 0 0 - - - 0;
#X floatatom 540 408 5 0 0 0 - - - 0;
#X obj 486 386 route left right;
#X obj 486 429 bng 20 250 50 0 empty empty empty 0 -10 0 12 #fcfcfc #000000 #000000;
#X obj 540 429 bng 20 250 50 0 empty empty empty 0 -10 0 12 #fcfcfc #000000 #000000;
#X obj 486 318 serial_print;
#N canvas 878 183 652 800 routeCOMport 0;
#X obj 121 166 print;
#X obj 104 398 spigot;
#X obj 143 367 tgl 19 0 empty empty empty 0 -10 0 12 #fcfcfc #000000 #000000 0 1;
#X obj 212 400 spigot;
#X obj 251 366 tgl 19 0 empty empty empty 0 -10 0 12 #fcfcfc #000000 #000000 0 1;
#X obj 110 139 serial_print;
#X obj 182 366 r rightIn;
#X obj 81 367 r leftIn;
#X floatatom 104 422 5 0 0 0 - - - 0;
#X floatatom 212 424 5 0 0 0 - - - 0;
#X msg 165 297 print G;
#X text 147 317 send char 'G' to arduino to connect;
#X obj 64 288 tgl 20 0 empty empty empty 0 -10 0 12 #fcfcfc #000000 #000000 0 1;
#X obj 25 313 spigot;
#X obj 25 338 s knockIn;
#X obj 170 99 spigot;
#X obj 209 73 tgl 20 0 empty empty empty 0 -10 0 12 #fcfcfc #000000 #000000 0 1;
#X msg 209 49 0;
#X obj 251 50 loadbang;
#X text 40 535 Change this so that left id == 1 \, right id == 2 \, and knock detect id == 0, f 79;
#X obj 75 43 inlet;
#X obj 212 475 outlet;
#X obj 104 478 outlet;
#X text 60 497 values from winds;
#X obj 110 232 select 0 1 2;
#X text 265 478 to comport;
#X obj 64 260 t b b b;
#X obj 143 260 t b b b;
#X obj 251 263 t b b b;
#X text 188 29 turn off ID check once found;
#X connect 1 0 8 0;
#X connect 2 0 1 1;
#X connect 3 0 9 0;
#X connect 4 0 3 1;
#X connect 5 0 0 0;
#X connect 5 0 24 0;
#X connect 6 0 3 0;
#X connect 7 0 1 0;
#X connect 8 0 22 0;
#X connect 8 0 21 0;
#X connect 9 0 22 0;
#X connect 9 0 21 0;
#X connect 10 0 21 0;
#X connect 12 0 13 1;
#X connect 13 0 14 0;
#X connect 15 0 5 0;
#X connect 16 0 15 1;
#X connect 17 0 16 0;
#X connect 18 0 16 0;
#X connect 20 0 15 0;
#X connect 20 0 13 0;
#X connect 24 0 26 0;
#X connect 24 1 27 0;
#X connect 24 2 28 0;
#X connect 26 0 12 0;
#X connect 26 1 10 0;
#X connect 26 2 17 0;
#X connect 27 0 2 0;
#X connect 27 1 10 0;
#X connect 27 2 17 0;
#X connect 28 0 4 0;
#X connect 28 1 10 0;
#X connect 28 2 17 0;
#X restore 29 400 pd routeCOMport;
#N canvas 1487 161 652 800 routeCOMport 0;
#X obj 121 166 print;
#X obj 104 398 spigot;
#X obj 143 367 tgl 19 0 empty empty empty 0 -10 0 12 #fcfcfc #000000 #000000 0 1;
#X obj 212 400 spigot;
#X obj 251 366 tgl 19 0 empty empty empty 0 -10 0 12 #fcfcfc #000000 #000000 0 1;
#X obj 110 139 serial_print;
#X obj 182 366 r rightIn;
#X obj 81 367 r leftIn;
#X floatatom 104 422 5 0 0 0 - - - 0;
#X floatatom 212 424 5 0 0 0 - - - 0;
#X msg 165 297 print G;
#X text 147 317 send char 'G' to arduino to connect;
#X obj 64 288 tgl 20 0 empty empty empty 0 -10 0 12 #fcfcfc #000000 #000000 0 1;
#X obj 25 313 spigot;
#X obj 25 338 s knockIn;
#X obj 170 99 spigot;
#X obj 209 73 tgl 20 0 empty empty empty 0 -10 0 12 #fcfcfc #000000 #000000 0 1;
#X msg 209 49 0;
#X obj 251 50 loadbang;
#X text 40 535 Change this so that left id == 1 \, right id == 2 \, and knock detect id == 0, f 79;
#X obj 75 43 inlet;
#X obj 212 475 outlet;
#X obj 104 478 outlet;
#X text 60 497 values from winds;
#X obj 110 232 select 0 1 2;
#X text 265 478 to comport;
#X obj 64 260 t b b b;
#X obj 143 260 t b b b;
#X obj 251 263 t b b b;
#X text 188 29 turn off ID check once found;
#X connect 1 0 8 0;
#X connect 2 0 1 1;
#X connect 3 0 9 0;
#X connect 4 0 3 1;
#X connect 5 0 0 0;
#X connect 5 0 24 0;
#X connect 6 0 3 0;
#X connect 7 0 1 0;
#X connect 8 0 22 0;
#X connect 8 0 21 0;
#X connect 9 0 22 0;
#X connect 9 0 21 0;
#X connect 10 0 21 0;
#X connect 12 0 13 1;
#X connect 13 0 14 0;
#X connect 15 0 5 0;
#X connect 16 0 15 1;
#X connect 17 0 16 0;
#X connect 18 0 16 0;
#X connect 20 0 15 0;
#X connect 20 0 13 0;
#X connect 24 0 26 0;
#X connect 24 1 27 0;
#X connect 24 2 28 0;
#X connect 26 0 12 0;
#X connect 26 1 10 0;
#X connect 26 2 17 0;
#X connect 27 0 2 0;
#X connect 27 1 10 0;
#X connect 27 2 17 0;
#X connect 28 0 4 0;
#X connect 28 1 10 0;
#X connect 28 2 17 0;
#X restore 213 401 pd routeCOMport;
#X obj 325 259 comport /dev/ttyUSB0 9600;
#X obj 29 368 comport /dev/ttyUSB1 9600;
#X obj 213 369 comport /dev/ttyUSB2 9600;
#X connect 0 0 24 0;
#X connect 0 0 25 0;
#X connect 0 0 26 0;
#X connect 2 0 4 0;
#X connect 3 0 5 0;
#X connect 8 0 21 0;
#X connect 10 0 11 0;
#X connect 10 1 24 0;
#X connect 14 0 15 0;
#X connect 15 0 18 0;
#X connect 16 0 19 0;
#X connect 17 0 20 0;
#X connect 18 0 16 0;
#X connect 18 1 17 0;
#X connect 21 0 14 0;
#X connect 21 1 14 1;
#X connect 22 0 12 0;
#X connect 22 1 25 0;
#X connect 23 0 13 0;
#X connect 23 1 26 0;
#X connect 24 0 10 0;
#X connect 25 0 22 0;
#X connect 26 0 23 0;
