#N canvas 771 50 1313 1358 12;
#X obj 199 579 spigot;
#X obj 277 521 tgl 19 0 empty empty empty 0 -10 0 12 #fcfcfc #000000 #000000 0 1;
#X obj 104 488 bng 80 250 50 0 empty empty empty 0 -10 0 12 #ff0400 #000000 #000000;
#X obj 277 622 f;
#X floatatom 277 721 5 0 0 0 - - - 0;
#X obj 277 652 + 1;
#X msg 231 634 -1;
#X obj 199 603 t b b;
#X obj 277 545 t f f;
#X obj 338 579 spigot;
#X obj 398 488 bng 80 250 50 0 empty empty empty 0 -10 0 12 #0400ff #000000 #000000;
#X obj 338 603 t b b;
#X msg 370 633 1;
#X obj 147 767 hradio 30 1 0 7 empty empty empty 0 -10 0 12 #fcfcfc #000000 #000000 0;
#X obj 279 743 + 10;
#X obj 277 675 max -10;
#X obj 277 699 min 10;
#X text 331 693 limit range;
#X text 316 746 fit range to slider;
#X text 73 772 North Wind;
#X text 779 770 South Wind;
#X text 435 468 South side of Tree;
#X text 32 468 North side of Tree;
#X obj 104 445 r letPass_left;
#X obj 398 443 r letPass_right;
#X obj 299 853 - 10;
#X text 226 824 change range to match number of hits needed to acheive wind change, f 68;
#X obj 299 877 * 25;
#X obj 325 992 f;
#X text 249 968 left wind;
#X text 508 986 right wind;
#X obj 325 1040 min 255;
#X floatatom 272 1174 5 0 0 0 - - - 0;
#X obj 369 962 abs;
#X obj 369 938 moses 1;
#X obj 477 987 f;
#X obj 477 1035 min 255;
#X floatatom 424 1171 5 0 0 0 - - - 0;
#X obj 272 1198 vsl 100 80 0 255 0 0 empty empty empty 0 -9 0 12 #fcfcfc #000000 #000000 0 1;
#X obj 424 1195 vsl 100 80 0 255 0 0 empty empty empty 0 -9 0 12 #fcfcfc #000000 #000000 0 1;
#X obj 299 901 t f f;
#X obj 477 1010 max -1;
#X obj 299 925 sel 0;
#X msg 325 967 0;
#X obj 325 1016 max 0;
#X obj 245 416 loadbang;
#X msg 277 495 1;
#N canvas 199 286 550 877 DAClessHit 0;
#X text 177 634 Holdoff:;
#X obj 252 775 spigot;
#X obj 285 749 tgl 15 0 empty empty empty 17 7 0 10 #fcfcfc #000000 #000000 0 1;
#X msg 273 720 1;
#X obj 143 495 bng 15 50 10 0 empty empty empty 17 7 0 10 #fcfcfc #000000 #000000;
#X obj 251 494 bng 15 50 10 0 empty empty empty 17 7 0 10 #fcfcfc #000000 #000000;
#X obj 246 672 t b b;
#X msg 246 720 0;
#X obj 143 775 spigot;
#X obj 176 749 tgl 15 0 empty empty empty 17 7 0 10 #fcfcfc #000000 #000000 0 1;
#X msg 166 720 1;
#X obj 139 672 t b b;
#X msg 139 720 0;
#X floatatom 189 651 5 0 0 0 - - - 0;
#X obj 252 796 bng 15 50 10 0 empty empty right 17 7 0 10 #fcfcfc #000000 #000000;
#X obj 145 798 bng 15 50 10 0 empty empty left 17 7 0 10 #fcfcfc #000000 #000000;
#X obj 252 820 s letPass_right;
#X obj 145 821 s letPass_left;
#X obj 166 161 list prepend;
#X obj 166 183 list trim;
#X floatatom 166 249 5 0 0 0 - - - 0;
#X floatatom 220 249 5 0 0 0 - - - 0;
#X obj 166 214 route left right;
#X obj 166 22 inlet;
#X text 214 22 serial in;
#X obj 143 471 spigot;
#X obj 176 445 tgl 15 0 empty empty empty 17 7 0 10 #fcfcfc #000000 #000000 0 1;
#X msg 166 416 1;
#X msg 139 416 0;
#X obj 139 368 t b b b;
#X obj 171 695 delay 30;
#X obj 251 470 spigot;
#X obj 284 444 tgl 15 0 empty empty empty 17 7 0 10 #fcfcfc #000000 #000000 0 1;
#X msg 274 415 1;
#X msg 247 415 0;
#X obj 247 367 t b b b;
#X obj 270 390 delay 40;
#X obj 176 391 delay 20;
#X obj 272 698 delay 20;
#X obj 159 330 bng 20 250 50 0 empty empty empty 0 -10 0 12 #fcfcfc #000000 #000000;
#X obj 227 330 bng 20 250 50 0 empty empty empty 0 -10 0 12 #fcfcfc #000000 #000000;
#X obj 166 49 serial_print;
#X obj 342 388 loadbang;
#X msg 342 413 1;
#X obj 361 698 loadbang;
#X msg 361 723 1;
#X connect 1 0 14 0;
#X connect 2 0 1 1;
#X connect 3 0 2 0;
#X connect 4 0 6 0;
#X connect 4 0 8 0;
#X connect 5 0 11 0;
#X connect 5 0 1 0;
#X connect 6 0 7 0;
#X connect 6 1 38 0;
#X connect 7 0 2 0;
#X connect 8 0 15 0;
#X connect 9 0 8 1;
#X connect 10 0 9 0;
#X connect 11 0 12 0;
#X connect 11 1 30 0;
#X connect 12 0 9 0;
#X connect 13 0 30 1;
#X connect 13 0 38 1;
#X connect 14 0 16 0;
#X connect 15 0 17 0;
#X connect 18 0 19 0;
#X connect 19 0 22 0;
#X connect 20 0 39 0;
#X connect 21 0 40 0;
#X connect 22 0 20 0;
#X connect 22 1 21 0;
#X connect 23 0 41 0;
#X connect 25 0 4 0;
#X connect 26 0 25 1;
#X connect 27 0 26 0;
#X connect 28 0 26 0;
#X connect 29 0 28 0;
#X connect 29 1 37 0;
#X connect 29 2 25 0;
#X connect 30 0 10 0;
#X connect 31 0 5 0;
#X connect 32 0 31 1;
#X connect 33 0 32 0;
#X connect 34 0 32 0;
#X connect 35 0 34 0;
#X connect 35 1 36 0;
#X connect 35 2 31 0;
#X connect 36 0 33 0;
#X connect 37 0 27 0;
#X connect 38 0 3 0;
#X connect 39 0 29 0;
#X connect 40 0 35 0;
#X connect 41 0 18 0;
#X connect 41 1 18 1;
#X connect 42 0 43 0;
#X connect 43 0 32 0;
#X connect 43 0 26 0;
#X connect 44 0 45 0;
#X connect 45 0 2 0;
#X connect 45 0 9 0;
#X restore 332 149 pd DAClessHit;
#N canvas 639 174 731 569 pulse 0;
#X obj 140 124 inlet;
#X text 274 153 get current brightness pulse adds + 40 to brightness settle back to set brightness;
#X obj 112 372 line;
#X obj 140 185 t f f;
#X obj 99 76 inlet;
#X obj 140 149 f;
#X obj 112 281 pipe 200;
#X obj 202 306 pack \$1 100;
#X obj 112 397 outlet;
#X obj 202 280 min 255;
#X text 91 52 bang for hit detection;
#X text 138 104 current brightness;
#X obj 202 225 + 20;
#X obj 112 307 pack \$1 200;
#X connect 0 0 5 0;
#X connect 2 0 8 0;
#X connect 3 0 6 0;
#X connect 3 1 12 0;
#X connect 4 0 5 0;
#X connect 5 0 3 0;
#X connect 6 0 13 0;
#X connect 7 0 2 0;
#X connect 9 0 7 0;
#X connect 12 0 9 0;
#X connect 13 0 2 0;
#X restore 272 1071 pd pulse;
#N canvas 621 635 731 569 pulse 0;
#X obj 140 124 inlet;
#X text 274 153 get current brightness pulse adds + 40 to brightness settle back to set brightness;
#X obj 109 304 line;
#X obj 140 185 t f f;
#X obj 99 76 inlet;
#X obj 140 149 f;
#X obj 109 213 pipe 200;
#X obj 198 265 pack \$1 100;
#X obj 109 329 outlet;
#X obj 198 239 min 255;
#X text 91 52 bang for hit detection;
#X text 138 104 current brightness;
#X obj 198 214 + 20;
#X obj 109 239 pack \$1 200;
#X connect 0 0 5 0;
#X connect 2 0 8 0;
#X connect 3 0 6 0;
#X connect 3 1 12 0;
#X connect 4 0 5 0;
#X connect 5 0 3 0;
#X connect 6 0 13 0;
#X connect 7 0 2 0;
#X connect 9 0 7 0;
#X connect 12 0 9 0;
#X connect 13 0 2 0;
#X restore 424 1076 pd pulse;
#X text 56 396 range limit to be determined based on length of karakii;
#X text 30 286 Change this so that left id == 1 \, right id == 2 \, and knock detect id == 0, f 79;
#X obj 332 106 r knockIn;
#N canvas 1062 178 652 800 routeCOMport 0;
#X obj 121 166 print;
#X obj 104 398 spigot;
#X obj 143 367 tgl 19 0 empty empty empty 0 -10 0 12 #fcfcfc #000000 #000000 0 1;
#X obj 212 400 spigot;
#X obj 251 366 tgl 19 0 empty empty empty 0 -10 0 12 #fcfcfc #000000 #000000 0 1;
#X obj 110 139 serial_print;
#X obj 182 366 r rightIn;
#X obj 81 367 r leftIn;
#X floatatom 104 422 5 0 0 0 - - - 0;
#X floatatom 212 424 5 0 0 0 - - - 0;
#X msg 165 297 print G;
#X text 147 317 send char 'G' to arduino to connect;
#X obj 64 288 tgl 20 0 empty empty empty 0 -10 0 12 #fcfcfc #000000 #000000 0 1;
#X obj 25 313 spigot;
#X obj 25 338 s knockIn;
#X obj 170 99 spigot;
#X obj 209 73 tgl 20 0 empty empty empty 0 -10 0 12 #fcfcfc #000000 #000000 0 1;
#X msg 209 49 0;
#X obj 251 50 loadbang;
#X text 40 535 Change this so that left id == 1 \, right id == 2 \, and knock detect id == 0, f 79;
#X obj 75 43 inlet;
#X obj 212 475 outlet;
#X obj 104 478 outlet;
#X text 60 497 values from winds;
#X obj 110 232 select 0 1 2;
#X text 265 478 to comport;
#X obj 64 260 t b b b;
#X obj 143 260 t b b b;
#X obj 251 263 t b b b;
#X text 188 29 turn off ID check once found;
#X connect 1 0 8 0;
#X connect 2 0 1 1;
#X connect 3 0 9 0;
#X connect 4 0 3 1;
#X connect 5 0 0 0;
#X connect 5 0 24 0;
#X connect 6 0 3 0;
#X connect 7 0 1 0;
#X connect 8 0 22 0;
#X connect 8 0 21 0;
#X connect 9 0 22 0;
#X connect 9 0 21 0;
#X connect 10 0 21 0;
#X connect 12 0 13 1;
#X connect 13 0 14 0;
#X connect 15 0 5 0;
#X connect 16 0 15 1;
#X connect 17 0 16 0;
#X connect 18 0 16 0;
#X connect 20 0 15 0;
#X connect 20 0 13 0;
#X connect 24 0 26 0;
#X connect 24 1 27 0;
#X connect 24 2 28 0;
#X connect 26 0 12 0;
#X connect 26 1 10 0;
#X connect 26 2 17 0;
#X connect 27 0 2 0;
#X connect 27 1 10 0;
#X connect 27 2 17 0;
#X connect 28 0 4 0;
#X connect 28 1 10 0;
#X connect 28 2 17 0;
#X restore 64 134 pd routeCOMport;
#X floatatom 64 159 5 0 0 0 - - - 0;
#X floatatom 64 259 5 0 0 0 - - - 0;
#X floatatom 248 260 5 0 0 0 - - - 0;
#N canvas 878 183 652 800 routeCOMport 0;
#X obj 121 166 print;
#X obj 104 398 spigot;
#X obj 143 367 tgl 19 0 empty empty empty 0 -10 0 12 #fcfcfc #000000 #000000 0 1;
#X obj 212 400 spigot;
#X obj 251 366 tgl 19 0 empty empty empty 0 -10 0 12 #fcfcfc #000000 #000000 0 1;
#X obj 110 139 serial_print;
#X obj 182 366 r rightIn;
#X obj 81 367 r leftIn;
#X floatatom 104 422 5 0 0 0 - - - 0;
#X floatatom 212 424 5 0 0 0 - - - 0;
#X msg 165 297 print G;
#X text 147 317 send char 'G' to arduino to connect;
#X obj 64 288 tgl 20 0 empty empty empty 0 -10 0 12 #fcfcfc #000000 #000000 0 1;
#X obj 25 313 spigot;
#X obj 25 338 s knockIn;
#X obj 170 99 spigot;
#X obj 209 73 tgl 20 0 empty empty empty 0 -10 0 12 #fcfcfc #000000 #000000 0 1;
#X msg 209 49 0;
#X obj 251 50 loadbang;
#X text 40 535 Change this so that left id == 1 \, right id == 2 \, and knock detect id == 0, f 79;
#X obj 75 43 inlet;
#X obj 212 475 outlet;
#X obj 104 478 outlet;
#X text 60 497 values from winds;
#X obj 110 232 select 0 1 2;
#X text 265 478 to comport;
#X obj 64 260 t b b b;
#X obj 143 260 t b b b;
#X obj 251 263 t b b b;
#X text 188 29 turn off ID check once found;
#X connect 1 0 8 0;
#X connect 2 0 1 1;
#X connect 3 0 9 0;
#X connect 4 0 3 1;
#X connect 5 0 0 0;
#X connect 5 0 24 0;
#X connect 6 0 3 0;
#X connect 7 0 1 0;
#X connect 8 0 22 0;
#X connect 8 0 21 0;
#X connect 9 0 22 0;
#X connect 9 0 21 0;
#X connect 10 0 21 0;
#X connect 12 0 13 1;
#X connect 13 0 14 0;
#X connect 15 0 5 0;
#X connect 16 0 15 1;
#X connect 17 0 16 0;
#X connect 18 0 16 0;
#X connect 20 0 15 0;
#X connect 20 0 13 0;
#X connect 24 0 26 0;
#X connect 24 1 27 0;
#X connect 24 2 28 0;
#X connect 26 0 12 0;
#X connect 26 1 10 0;
#X connect 26 2 17 0;
#X connect 27 0 2 0;
#X connect 27 1 10 0;
#X connect 27 2 17 0;
#X connect 28 0 4 0;
#X connect 28 1 10 0;
#X connect 28 2 17 0;
#X restore 64 227 pd routeCOMport;
#N canvas 1487 161 652 800 routeCOMport 0;
#X obj 121 166 print;
#X obj 104 398 spigot;
#X obj 143 367 tgl 19 0 empty empty empty 0 -10 0 12 #fcfcfc #000000 #000000 0 1;
#X obj 212 400 spigot;
#X obj 251 366 tgl 19 0 empty empty empty 0 -10 0 12 #fcfcfc #000000 #000000 0 1;
#X obj 110 139 serial_print;
#X obj 182 366 r rightIn;
#X obj 81 367 r leftIn;
#X floatatom 104 422 5 0 0 0 - - - 0;
#X floatatom 212 424 5 0 0 0 - - - 0;
#X msg 165 297 print G;
#X text 147 317 send char 'G' to arduino to connect;
#X obj 64 288 tgl 20 0 empty empty empty 0 -10 0 12 #fcfcfc #000000 #000000 0 1;
#X obj 25 313 spigot;
#X obj 25 338 s knockIn;
#X obj 170 99 spigot;
#X obj 209 73 tgl 20 0 empty empty empty 0 -10 0 12 #fcfcfc #000000 #000000 0 1;
#X msg 209 49 0;
#X obj 251 50 loadbang;
#X text 40 535 Change this so that left id == 1 \, right id == 2 \, and knock detect id == 0, f 79;
#X obj 75 43 inlet;
#X obj 212 475 outlet;
#X obj 104 478 outlet;
#X text 60 497 values from winds;
#X obj 110 232 select 0 1 2;
#X text 265 478 to comport;
#X obj 64 260 t b b b;
#X obj 143 260 t b b b;
#X obj 251 263 t b b b;
#X text 188 29 turn off ID check once found;
#X connect 1 0 8 0;
#X connect 2 0 1 1;
#X connect 3 0 9 0;
#X connect 4 0 3 1;
#X connect 5 0 0 0;
#X connect 5 0 24 0;
#X connect 6 0 3 0;
#X connect 7 0 1 0;
#X connect 8 0 22 0;
#X connect 8 0 21 0;
#X connect 9 0 22 0;
#X connect 9 0 21 0;
#X connect 10 0 21 0;
#X connect 12 0 13 1;
#X connect 13 0 14 0;
#X connect 15 0 5 0;
#X connect 16 0 15 1;
#X connect 17 0 16 0;
#X connect 18 0 16 0;
#X connect 20 0 15 0;
#X connect 20 0 13 0;
#X connect 24 0 26 0;
#X connect 24 1 27 0;
#X connect 24 2 28 0;
#X connect 26 0 12 0;
#X connect 26 1 10 0;
#X connect 26 2 17 0;
#X connect 27 0 2 0;
#X connect 27 1 10 0;
#X connect 27 2 17 0;
#X connect 28 0 4 0;
#X connect 28 1 10 0;
#X connect 28 2 17 0;
#X restore 248 228 pd routeCOMport;
#X obj 64 95 comport /dev/ttyUSB0 9600;
#X obj 64 195 comport /dev/ttyUSB1 9600;
#X obj 248 196 comport /dev/ttyUSB2 9600;
#X obj 424 1297 s rightIn;
#X obj 272 1300 s leftIn;
#X obj 203 470 pipe 15000;
#X obj 595 636 * -1;
#X msg 655 686 number \$1;
#X text 624 560 number of hits needed to get from one side to the other;
#X obj 595 587 / 2;
#X obj 655 636 * 2;
#X obj 245 441 t b b;
#X obj 595 611 t f f f f f;
#X obj 749 675 /;
#X obj 749 626 t b f;
#X msg 749 651 255;
#X floatatom 749 700 5 0 0 0 - - - 0;
#X floatatom 373 885 5 0 0 0 - - - 0;
#X obj 655 661 + 1;
#X obj 272 1096 int;
#X obj 424 1101 int;
#X msg 265 586 16;
#X obj 304 593 f;
#X obj 335 530 bng 20 250 50 0 empty empty empty 0 -10 0 12 #fcfcfc #000000 #000000;
#X obj 595 523 loadbang;
#X obj 204 493 t b b;
#X obj 197 519 s zeroFan;
#X obj 329 1105 r zeroFan;
#X obj 835 180 metro 1000;
#X obj 835 205 f;
#X obj 835 230 + 1;
#X floatatom 835 255 5 0 0 0 - - - 0;
#X obj 835 142 tgl 20 0 empty empty empty 0 -10 0 12 #fcfcfc #000000 #000000 0 1;
#X obj 835 302 sel 0;
#X msg 950 96 0;
#X msg 835 117 1;
#X obj 873 122 t f f;
#X obj 835 327 t b b b;
#X obj 770 118 t b b;
#X msg 802 142 0;
#X obj 881 467 int;
#X floatatom 881 492 5 0 0 0 - - - 0;
#X obj 881 442 line;
#X text 740 72 AFK counter \, currently just sets to full right hand.;
#X obj 835 278 < 40;
#X msg 595 562 6;
#N canvas 1084 345 1179 873 audio 0;
#X obj 116 199 inlet;
#X text 32 200 start audio;
#N canvas 0 50 450 250 (subpatch) 0;
#X array karakii 1.10327e+06 float 2;
#X coords 0 1 1.10327e+06 -1 200 140 1;
#X restore 10 17 graph;
#X obj 289 166 loadbang;
#X obj 289 191 pipe 1000;
#X msg 329 310 read -resize ./kopwiWindsKarakii-first.wav karakii;
#X obj 329 335 soundfiler;
#X obj 329 287 bng 20 250 50 0 empty empty empty 0 -10 0 12 #fcfcfc #000000 #000000;
#X obj 148 387 tabplay~ karakii;
#X obj 147 468 output~;
#X msg 148 347 0;
#X msg 189 347 stop;
#X obj 292 528 vu 15 160 empty empty -1 -8 0 12 #404040 #000000 1 0;
#N canvas 329 161 625 417 vu 0;
#X obj 59 129 env~ 1024;
#X obj 161 111 abs~;
#X obj 161 213 snapshot~;
#X obj 161 256 rmstodb;
#X obj 161 21 inlet~;
#X obj 161 288 - 100;
#X obj 59 287 - 100;
#X obj 59 361 outlet;
#X obj 161 361 outlet;
#X text 344 307 Check the help file of env~ and slop~ for more details., f 31;
#X obj 239 89 expr 1000 / $f1;
#X floatatom 239 117 5 0 0 0 - - - 0;
#X obj 161 146 slop~ 0 0 0 0 1e+09;
#X obj 239 18 inlet;
#X floatatom 239 57 5 0 0 0 - - - 0;
#X text 359 89 convert to hz;
#X text 282 118 hz;
#X text 284 57 peak decay time in ms;
#X obj 59 171 t f b;
#X text 345 132 The env~ object is dedicated to RMS analysis. Its output is in dB (0-100 range \, pd style) but needs to be converted to dBFS (and we do that by simply subtracting 100)., f 31;
#X text 345 225 The slop~ object is used here for peak detection. We need to convert the output to dB with rmstodb and also subtract by 100 to convert it to dBFS., f 31;
#X connect 0 0 18 0;
#X connect 1 0 12 0;
#X connect 2 0 3 0;
#X connect 3 0 5 0;
#X connect 4 0 0 0;
#X connect 4 0 1 0;
#X connect 5 0 8 0;
#X connect 6 0 7 0;
#X connect 10 0 11 0;
#X connect 11 0 12 3;
#X connect 12 0 2 0;
#X connect 13 0 14 0;
#X connect 14 0 10 0;
#X connect 18 0 6 0;
#X connect 18 1 2 0;
#X restore 269 485 pd vu;
#X floatatom 301 461 6 0 1000 0 - decay - 0;
#X msg 349 245 \; pd dsp 1;
#X text 421 247 <-- start DSP automatically, f 13;
#X obj 116 230 t b b;
#X obj 148 324 spigot;
#X obj 187 296 tgl 20 0 empty empty empty 0 -10 0 12 #fcfcfc #000000 #000000 0 1;
#X msg 223 265 1;
#X msg 187 265 0;
#X obj 62 231 bng 20 250 50 0 empty empty empty 0 -10 0 12 #fcfcfc #000000 #000000;
#X msg 272 386 level 100;
#X obj 289 217 t b b b b;
#X text 217 143 init dsp out \, store soundfile in memory \, set volume \, allow playback, f 67;
#X connect 0 0 17 0;
#X connect 3 0 4 0;
#X connect 4 0 24 0;
#X connect 5 0 6 0;
#X connect 7 0 5 0;
#X connect 8 0 9 0;
#X connect 8 0 13 0;
#X connect 8 1 20 0;
#X connect 10 0 8 0;
#X connect 11 0 8 0;
#X connect 13 0 12 0;
#X connect 13 1 12 1;
#X connect 14 0 13 1;
#X connect 17 0 21 0;
#X connect 17 1 18 0;
#X connect 18 0 10 0;
#X connect 19 0 18 1;
#X connect 20 0 19 0;
#X connect 21 0 19 0;
#X connect 22 0 17 0;
#X connect 23 0 9 0;
#X connect 24 0 20 0;
#X connect 24 1 23 0;
#X connect 24 2 7 0;
#X connect 24 3 15 0;
#X restore 524 163 pd audio;
#X obj 524 139 bng 20 250 50 0 empty empty empty 0 -10 0 12 #fcfcfc #000000 #000000;
#X obj 472 579 s beenHit;
#X obj 770 93 r beenHit;
#X obj 524 112 r beenHit;
#X obj 881 356 random 2;
#X obj 894 327 bng 20 250 50 0 empty empty empty 0 -10 0 12 #fcfcfc #000000 #000000;
#X obj 881 381 select 0;
#X msg 933 410 -1 \, 20 5000;
#X msg 845 410 1 \, -20 5000;
#X text 954 374 reset to random directoin;
#X text 478 93 Audio Logic when hit;
#X connect 0 0 7 0;
#X connect 1 0 8 0;
#X connect 2 0 0 0;
#X connect 2 0 48 0;
#X connect 2 0 107 0;
#X connect 3 0 5 0;
#X connect 4 0 14 0;
#X connect 5 0 15 0;
#X connect 6 0 5 1;
#X connect 7 0 3 0;
#X connect 7 1 6 0;
#X connect 8 0 0 1;
#X connect 8 1 9 1;
#X connect 9 0 11 0;
#X connect 10 0 9 0;
#X connect 10 0 49 0;
#X connect 10 0 107 0;
#X connect 11 0 3 0;
#X connect 11 1 12 0;
#X connect 12 0 5 1;
#X connect 13 0 25 0;
#X connect 14 0 13 0;
#X connect 15 0 16 0;
#X connect 16 0 3 1;
#X connect 16 0 4 0;
#X connect 23 0 2 0;
#X connect 24 0 10 0;
#X connect 25 0 27 0;
#X connect 27 0 40 0;
#X connect 27 0 76 0;
#X connect 28 0 44 0;
#X connect 31 0 48 1;
#X connect 32 0 38 0;
#X connect 33 0 28 0;
#X connect 34 0 33 0;
#X connect 34 1 35 0;
#X connect 35 0 41 0;
#X connect 36 0 49 1;
#X connect 37 0 39 0;
#X connect 38 0 63 0;
#X connect 39 0 62 0;
#X connect 40 0 42 0;
#X connect 40 1 34 0;
#X connect 41 0 36 0;
#X connect 42 0 43 0;
#X connect 43 0 28 0;
#X connect 43 0 35 0;
#X connect 44 0 31 0;
#X connect 45 0 70 0;
#X connect 46 0 1 0;
#X connect 48 0 78 0;
#X connect 49 0 79 0;
#X connect 52 0 47 0;
#X connect 53 0 54 0;
#X connect 53 1 59 0;
#X connect 57 0 55 0;
#X connect 57 1 60 0;
#X connect 58 0 56 0;
#X connect 58 1 61 0;
#X connect 59 0 53 0;
#X connect 60 0 57 0;
#X connect 61 0 58 0;
#X connect 64 0 84 0;
#X connect 65 0 15 1;
#X connect 66 0 13 0;
#X connect 68 0 71 0;
#X connect 69 0 77 0;
#X connect 70 0 64 0;
#X connect 70 1 46 0;
#X connect 71 0 65 0;
#X connect 71 1 16 1;
#X connect 71 1 25 1;
#X connect 71 1 81 1;
#X connect 71 2 14 1;
#X connect 71 3 69 0;
#X connect 71 4 73 0;
#X connect 72 0 75 0;
#X connect 72 0 27 1;
#X connect 73 0 74 0;
#X connect 73 1 72 1;
#X connect 74 0 72 0;
#X connect 77 0 66 0;
#X connect 78 0 32 0;
#X connect 79 0 37 0;
#X connect 80 0 3 0;
#X connect 81 0 3 0;
#X connect 82 0 81 0;
#X connect 83 0 104 0;
#X connect 84 0 81 0;
#X connect 84 1 85 0;
#X connect 86 0 32 0;
#X connect 86 0 37 0;
#X connect 87 0 88 0;
#X connect 88 0 89 0;
#X connect 89 0 90 0;
#X connect 89 0 88 1;
#X connect 90 0 103 0;
#X connect 91 0 87 0;
#X connect 92 0 96 0;
#X connect 93 0 95 0;
#X connect 94 0 91 0;
#X connect 95 0 91 0;
#X connect 95 1 88 0;
#X connect 96 1 93 0;
#X connect 96 2 110 0;
#X connect 97 0 94 0;
#X connect 97 1 98 0;
#X connect 98 0 88 0;
#X connect 99 0 100 0;
#X connect 100 0 3 0;
#X connect 101 0 99 0;
#X connect 103 0 92 0;
#X connect 104 0 68 0;
#X connect 106 0 105 0;
#X connect 108 0 97 0;
#X connect 109 0 106 0;
#X connect 110 0 112 0;
#X connect 111 0 110 0;
#X connect 112 0 114 0;
#X connect 112 1 113 0;
#X connect 113 0 101 0;
#X connect 114 0 101 0;
