#N canvas 0 9 1164 1028 12;
#X obj 169 449 spigot;
#X obj 247 391 tgl 19 0 empty empty empty 0 -10 0 12 #fcfcfc #000000 #000000 0 1;
#X obj 74 358 bng 80 250 50 0 empty empty empty 0 -10 0 12 #ff0400 #000000 #000000;
#X obj 247 492 f;
#X floatatom 247 591 5 0 0 0 - - - 0;
#X obj 247 522 + 1;
#X msg 201 504 -1;
#X obj 169 473 t b b;
#X obj 247 415 t f f;
#X obj 308 449 spigot;
#X obj 368 359 bng 80 250 50 0 empty empty empty 0 -10 0 12 #0400ff #000000 #000000;
#X msg 340 503 1;
#X obj 117 637 hradio 30 1 0 13 empty empty empty 0 -10 0 12 #fcfcfc #000000 #000000 0;
#X obj 249 613 + 10;
#X obj 247 545 max -10;
#X obj 247 569 min 10;
#X text 301 563 limit range;
#X text 286 616 fit range to slider;
#X text 43 642 North Wind;
#X text 749 640 South Wind;
#X text 405 338 South side of Tree;
#X text 2 338 North side of Tree;
#X obj 74 315 r letPass_left;
#X obj 368 313 r letPass_right;
#X obj 269 723 - 10;
#X text 196 694 change range to match number of hits needed to acheive wind change, f 68;
#X obj 269 747 * 25;
#X obj 295 862 f;
#X text 219 838 left wind;
#X text 478 856 right wind;
#X obj 295 910 min 255;
#X floatatom 242 1044 5 0 0 0 - - - 0;
#X obj 339 832 abs;
#X obj 339 808 moses 1;
#X obj 447 857 f;
#X obj 447 905 min 255;
#X floatatom 394 1041 5 0 0 0 - - - 0;
#X obj 242 1068 vsl 100 80 0 255 0 0 empty empty empty 0 -9 0 12 #fcfcfc #000000 #000000 0 1;
#X obj 394 1065 vsl 100 80 0 255 0 0 empty empty empty 0 -9 0 12 #fcfcfc #000000 #000000 0 1;
#X obj 269 771 t f f;
#X obj 447 880 max -1;
#X obj 269 795 sel 0;
#X msg 295 837 0;
#X obj 295 886 max 0;
#X obj 215 286 loadbang;
#X msg 247 365 1;
#N canvas 338 96 550 877 DAClessHit 0;
#X text 177 634 Holdoff:;
#X obj 252 775 spigot;
#X obj 285 749 tgl 15 0 empty empty empty 17 7 0 10 #fcfcfc #000000 #000000 0 1;
#X msg 273 720 1;
#X obj 143 495 bng 15 50 10 0 empty empty empty 17 7 0 10 #fcfcfc #000000 #000000;
#X obj 251 494 bng 15 50 10 0 empty empty empty 17 7 0 10 #fcfcfc #000000 #000000;
#X obj 246 672 t b b;
#X msg 246 720 0;
#X obj 143 775 spigot;
#X obj 176 749 tgl 15 0 empty empty empty 17 7 0 10 #fcfcfc #000000 #000000 0 1;
#X msg 166 720 1;
#X obj 139 672 t b b;
#X msg 139 720 0;
#X floatatom 189 651 5 0 0 0 - - - 0;
#X obj 252 796 bng 15 50 10 0 empty empty right 17 7 0 10 #fcfcfc #000000 #000000;
#X obj 145 798 bng 15 50 10 0 empty empty left 17 7 0 10 #fcfcfc #000000 #000000;
#X obj 252 820 s letPass_right;
#X obj 145 821 s letPass_left;
#X obj 166 161 list prepend;
#X obj 166 183 list trim;
#X floatatom 166 249 5 0 0 0 - - - 0;
#X floatatom 220 249 5 0 0 0 - - - 0;
#X obj 166 214 route left right;
#X obj 166 22 inlet;
#X text 214 22 serial in;
#X obj 143 471 spigot;
#X obj 176 445 tgl 15 0 empty empty empty 17 7 0 10 #fcfcfc #000000 #000000 0 1;
#X msg 166 416 1;
#X msg 139 416 0;
#X obj 139 368 t b b b;
#X obj 171 695 delay 30;
#X obj 251 470 spigot;
#X obj 284 444 tgl 15 0 empty empty empty 17 7 0 10 #fcfcfc #000000 #000000 0 1;
#X msg 274 415 1;
#X msg 247 415 0;
#X obj 247 367 t b b b;
#X obj 270 390 delay 40;
#X obj 176 391 delay 20;
#X obj 272 698 delay 20;
#X obj 159 330 bng 20 250 50 0 empty empty empty 0 -10 0 12 #fcfcfc #000000 #000000;
#X obj 227 330 bng 20 250 50 0 empty empty empty 0 -10 0 12 #fcfcfc #000000 #000000;
#X obj 166 49 serial_print;
#X obj 342 388 loadbang;
#X msg 342 413 1;
#X obj 361 698 loadbang;
#X msg 361 723 1;
#X connect 1 0 14 0;
#X connect 2 0 1 1;
#X connect 3 0 2 0;
#X connect 4 0 6 0;
#X connect 4 0 8 0;
#X connect 5 0 11 0;
#X connect 5 0 1 0;
#X connect 6 0 7 0;
#X connect 6 1 38 0;
#X connect 7 0 2 0;
#X connect 8 0 15 0;
#X connect 9 0 8 1;
#X connect 10 0 9 0;
#X connect 11 0 12 0;
#X connect 11 1 30 0;
#X connect 12 0 9 0;
#X connect 13 0 30 1;
#X connect 13 0 38 1;
#X connect 14 0 16 0;
#X connect 15 0 17 0;
#X connect 18 0 19 0;
#X connect 19 0 22 0;
#X connect 20 0 39 0;
#X connect 21 0 40 0;
#X connect 22 0 20 0;
#X connect 22 1 21 0;
#X connect 23 0 41 0;
#X connect 25 0 4 0;
#X connect 26 0 25 1;
#X connect 27 0 26 0;
#X connect 28 0 26 0;
#X connect 29 0 28 0;
#X connect 29 1 37 0;
#X connect 29 2 25 0;
#X connect 30 0 10 0;
#X connect 31 0 5 0;
#X connect 32 0 31 1;
#X connect 33 0 32 0;
#X connect 34 0 32 0;
#X connect 35 0 34 0;
#X connect 35 1 36 0;
#X connect 35 2 31 0;
#X connect 36 0 33 0;
#X connect 37 0 27 0;
#X connect 38 0 3 0;
#X connect 39 0 29 0;
#X connect 40 0 35 0;
#X connect 41 0 18 0;
#X connect 41 1 18 1;
#X connect 42 0 43 0;
#X connect 43 0 32 0;
#X connect 43 0 26 0;
#X connect 44 0 45 0;
#X connect 45 0 2 0;
#X connect 45 0 9 0;
#X restore 302 69 pd DAClessHit;
#N canvas 639 174 731 569 pulse 0;
#X obj 140 124 inlet;
#X text 274 153 get current brightness pulse adds + 40 to brightness settle back to set brightness;
#X obj 112 372 line;
#X obj 140 185 t f f;
#X obj 99 76 inlet;
#X obj 140 149 f;
#X obj 112 281 pipe 200;
#X obj 202 306 pack \$1 100;
#X obj 112 397 outlet;
#X obj 202 280 min 255;
#X text 91 52 bang for hit detection;
#X text 138 104 current brightness;
#X obj 202 225 + 20;
#X obj 112 307 pack \$1 200;
#X connect 0 0 5 0;
#X connect 2 0 8 0;
#X connect 3 0 6 0;
#X connect 3 1 12 0;
#X connect 4 0 5 0;
#X connect 5 0 3 0;
#X connect 6 0 13 0;
#X connect 7 0 2 0;
#X connect 9 0 7 0;
#X connect 12 0 9 0;
#X connect 13 0 2 0;
#X restore 242 941 pd pulse;
#N canvas 621 635 731 569 pulse 0;
#X obj 140 124 inlet;
#X text 274 153 get current brightness pulse adds + 40 to brightness settle back to set brightness;
#X obj 109 304 line;
#X obj 140 185 t f f;
#X obj 99 76 inlet;
#X obj 140 149 f;
#X obj 109 213 pipe 200;
#X obj 198 265 pack \$1 100;
#X obj 109 329 outlet;
#X obj 198 239 min 255;
#X text 91 52 bang for hit detection;
#X text 138 104 current brightness;
#X obj 198 214 + 20;
#X obj 109 239 pack \$1 200;
#X connect 0 0 5 0;
#X connect 2 0 8 0;
#X connect 3 0 6 0;
#X connect 3 1 12 0;
#X connect 4 0 5 0;
#X connect 5 0 3 0;
#X connect 6 0 13 0;
#X connect 7 0 2 0;
#X connect 9 0 7 0;
#X connect 12 0 9 0;
#X connect 13 0 2 0;
#X restore 394 946 pd pulse;
#X text 0 206 Change this so that left id == 1 \, right id == 2 \, and knock detect id == 0, f 79;
#X obj 302 26 r knockIn;
#N canvas 1062 178 652 800 routeCOMport 0;
#X obj 121 166 print;
#X obj 104 398 spigot;
#X obj 143 367 tgl 19 0 empty empty empty 0 -10 0 12 #fcfcfc #000000 #000000 0 1;
#X obj 212 400 spigot;
#X obj 251 366 tgl 19 0 empty empty empty 0 -10 0 12 #fcfcfc #000000 #000000 0 1;
#X obj 110 139 serial_print;
#X obj 182 366 r rightIn;
#X obj 81 367 r leftIn;
#X floatatom 104 422 5 0 0 0 - - - 0;
#X floatatom 212 424 5 0 0 0 - - - 0;
#X msg 165 297 print G;
#X text 147 317 send char 'G' to arduino to connect;
#X obj 64 288 tgl 20 0 empty empty empty 0 -10 0 12 #fcfcfc #000000 #000000 0 1;
#X obj 25 313 spigot;
#X obj 25 338 s knockIn;
#X obj 170 99 spigot;
#X obj 209 73 tgl 20 0 empty empty empty 0 -10 0 12 #fcfcfc #000000 #000000 0 1;
#X msg 209 49 0;
#X obj 251 50 loadbang;
#X text 40 535 Change this so that left id == 1 \, right id == 2 \, and knock detect id == 0, f 79;
#X obj 75 43 inlet;
#X obj 212 475 outlet;
#X obj 104 478 outlet;
#X text 60 497 values from winds;
#X obj 110 232 select 0 1 2;
#X text 265 478 to comport;
#X obj 64 260 t b b b;
#X obj 143 260 t b b b;
#X obj 251 263 t b b b;
#X text 188 29 turn off ID check once found;
#X connect 1 0 8 0;
#X connect 2 0 1 1;
#X connect 3 0 9 0;
#X connect 4 0 3 1;
#X connect 5 0 0 0;
#X connect 5 0 24 0;
#X connect 6 0 3 0;
#X connect 7 0 1 0;
#X connect 8 0 22 0;
#X connect 8 0 21 0;
#X connect 9 0 22 0;
#X connect 9 0 21 0;
#X connect 10 0 21 0;
#X connect 12 0 13 1;
#X connect 13 0 14 0;
#X connect 15 0 5 0;
#X connect 16 0 15 1;
#X connect 17 0 16 0;
#X connect 18 0 16 0;
#X connect 20 0 15 0;
#X connect 20 0 13 0;
#X connect 24 0 26 0;
#X connect 24 1 27 0;
#X connect 24 2 28 0;
#X connect 26 0 12 0;
#X connect 26 1 10 0;
#X connect 26 2 17 0;
#X connect 27 0 2 0;
#X connect 27 1 10 0;
#X connect 27 2 17 0;
#X connect 28 0 4 0;
#X connect 28 1 10 0;
#X connect 28 2 17 0;
#X restore 34 54 pd routeCOMport;
#X floatatom 34 79 5 0 0 0 - - - 0;
#X floatatom 34 179 5 0 0 0 - - - 0;
#X floatatom 218 180 5 0 0 0 - - - 0;
#N canvas 878 183 652 800 routeCOMport 0;
#X obj 121 166 print;
#X obj 104 398 spigot;
#X obj 143 367 tgl 19 0 empty empty empty 0 -10 0 12 #fcfcfc #000000 #000000 0 1;
#X obj 212 400 spigot;
#X obj 251 366 tgl 19 0 empty empty empty 0 -10 0 12 #fcfcfc #000000 #000000 0 1;
#X obj 110 139 serial_print;
#X obj 182 366 r rightIn;
#X obj 81 367 r leftIn;
#X floatatom 104 422 5 0 0 0 - - - 0;
#X floatatom 212 424 5 0 0 0 - - - 0;
#X msg 165 297 print G;
#X text 147 317 send char 'G' to arduino to connect;
#X obj 64 288 tgl 20 0 empty empty empty 0 -10 0 12 #fcfcfc #000000 #000000 0 1;
#X obj 25 313 spigot;
#X obj 25 338 s knockIn;
#X obj 170 99 spigot;
#X obj 209 73 tgl 20 0 empty empty empty 0 -10 0 12 #fcfcfc #000000 #000000 0 1;
#X msg 209 49 0;
#X obj 251 50 loadbang;
#X text 40 535 Change this so that left id == 1 \, right id == 2 \, and knock detect id == 0, f 79;
#X obj 75 43 inlet;
#X obj 212 475 outlet;
#X obj 104 478 outlet;
#X text 60 497 values from winds;
#X obj 110 232 select 0 1 2;
#X text 265 478 to comport;
#X obj 64 260 t b b b;
#X obj 143 260 t b b b;
#X obj 251 263 t b b b;
#X text 188 29 turn off ID check once found;
#X connect 1 0 8 0;
#X connect 2 0 1 1;
#X connect 3 0 9 0;
#X connect 4 0 3 1;
#X connect 5 0 0 0;
#X connect 5 0 24 0;
#X connect 6 0 3 0;
#X connect 7 0 1 0;
#X connect 8 0 22 0;
#X connect 8 0 21 0;
#X connect 9 0 22 0;
#X connect 9 0 21 0;
#X connect 10 0 21 0;
#X connect 12 0 13 1;
#X connect 13 0 14 0;
#X connect 15 0 5 0;
#X connect 16 0 15 1;
#X connect 17 0 16 0;
#X connect 18 0 16 0;
#X connect 20 0 15 0;
#X connect 20 0 13 0;
#X connect 24 0 26 0;
#X connect 24 1 27 0;
#X connect 24 2 28 0;
#X connect 26 0 12 0;
#X connect 26 1 10 0;
#X connect 26 2 17 0;
#X connect 27 0 2 0;
#X connect 27 1 10 0;
#X connect 27 2 17 0;
#X connect 28 0 4 0;
#X connect 28 1 10 0;
#X connect 28 2 17 0;
#X restore 34 147 pd routeCOMport;
#N canvas 1236 205 652 800 routeCOMport 0;
#X obj 121 166 print;
#X obj 104 398 spigot;
#X obj 143 367 tgl 19 0 empty empty empty 0 -10 0 12 #fcfcfc #000000 #000000 0 1;
#X obj 212 400 spigot;
#X obj 251 366 tgl 19 0 empty empty empty 0 -10 0 12 #fcfcfc #000000 #000000 0 1;
#X obj 110 139 serial_print;
#X obj 182 366 r rightIn;
#X obj 81 367 r leftIn;
#X floatatom 104 422 5 0 0 0 - - - 0;
#X floatatom 212 424 5 0 0 0 - - - 0;
#X msg 165 297 print G;
#X text 147 317 send char 'G' to arduino to connect;
#X obj 64 288 tgl 20 0 empty empty empty 0 -10 0 12 #fcfcfc #000000 #000000 0 1;
#X obj 25 313 spigot;
#X obj 25 338 s knockIn;
#X obj 170 99 spigot;
#X obj 209 73 tgl 20 0 empty empty empty 0 -10 0 12 #fcfcfc #000000 #000000 0 1;
#X msg 209 49 0;
#X obj 251 50 loadbang;
#X text 40 535 Change this so that left id == 1 \, right id == 2 \, and knock detect id == 0, f 79;
#X obj 75 43 inlet;
#X obj 212 475 outlet;
#X obj 104 478 outlet;
#X text 60 497 values from winds;
#X obj 110 232 select 0 1 2;
#X text 265 478 to comport;
#X obj 64 260 t b b b;
#X obj 143 260 t b b b;
#X obj 251 263 t b b b;
#X text 188 29 turn off ID check once found;
#X connect 1 0 8 0;
#X connect 2 0 1 1;
#X connect 3 0 9 0;
#X connect 4 0 3 1;
#X connect 5 0 0 0;
#X connect 5 0 24 0;
#X connect 6 0 3 0;
#X connect 7 0 1 0;
#X connect 8 0 22 0;
#X connect 8 0 21 0;
#X connect 9 0 22 0;
#X connect 9 0 21 0;
#X connect 10 0 21 0;
#X connect 12 0 13 1;
#X connect 13 0 14 0;
#X connect 15 0 5 0;
#X connect 16 0 15 1;
#X connect 17 0 16 0;
#X connect 18 0 16 0;
#X connect 20 0 15 0;
#X connect 20 0 13 0;
#X connect 24 0 26 0;
#X connect 24 1 27 0;
#X connect 24 2 28 0;
#X connect 26 0 12 0;
#X connect 26 1 10 0;
#X connect 26 2 17 0;
#X connect 27 0 2 0;
#X connect 27 1 10 0;
#X connect 27 2 17 0;
#X connect 28 0 4 0;
#X connect 28 1 10 0;
#X connect 28 2 17 0;
#X restore 218 148 pd routeCOMport;
#X obj 34 15 comport /dev/ttyUSB0 9600;
#X obj 34 115 comport /dev/ttyUSB1 9600;
#X obj 218 116 comport /dev/ttyUSB2 9600;
#X obj 394 1167 s rightIn;
#X obj 242 1170 s leftIn;
#X obj 173 340 pipe 15000;
#X obj 565 506 * -1;
#X msg 625 556 number \$1;
#X text 594 430 number of hits needed to get from one side to the other;
#X obj 565 457 / 2;
#X obj 625 506 * 2;
#X obj 215 311 t b b;
#X obj 565 481 t f f f f f;
#X obj 719 545 /;
#X obj 719 496 t b f;
#X msg 719 521 255;
#X floatatom 719 570 5 0 0 0 - - - 0;
#X floatatom 343 755 5 0 0 0 - - - 0;
#X obj 625 531 + 1;
#X obj 242 966 int;
#X obj 394 971 int;
#X msg 235 456 16;
#X obj 274 463 f;
#X obj 305 400 bng 20 250 50 0 empty empty empty 0 -10 0 12 #fcfcfc #000000 #000000;
#X obj 565 393 loadbang;
#X obj 174 363 t b b;
#X obj 167 389 s zeroFan;
#X obj 299 975 r zeroFan;
#X obj 805 100 metro 1000;
#X obj 805 125 f;
#X obj 805 150 + 1;
#X floatatom 805 175 5 0 0 0 - - - 0;
#X obj 805 62 tgl 20 0 empty empty empty 0 -10 0 12 #fcfcfc #000000 #000000 0 1;
#X obj 805 222 sel 0;
#X msg 920 16 0;
#X msg 805 37 1;
#X obj 843 42 t f f;
#X obj 740 38 t b b;
#X msg 772 62 0;
#X obj 851 387 int;
#X floatatom 851 412 5 0 0 0 - - - 0;
#X obj 851 362 line;
#X obj 805 198 < 40;
#N canvas 507 82 748 840 audio 0;
#X obj 116 199 inlet;
#X text 32 200 start audio;
#N canvas 0 50 450 250 (subpatch) 0;
#X array karakii 1.55262e+06 float 2;
#X coords 0 1 1.55262e+06 -1 200 140 1;
#X restore 10 17 graph;
#X obj 289 166 loadbang;
#X obj 289 191 pipe 1000;
#X obj 329 335 soundfiler;
#X obj 329 287 bng 20 250 50 0 empty empty empty 0 -10 0 12 #fcfcfc #000000 #000000;
#X obj 148 387 tabplay~ karakii;
#X obj 161 677 output~;
#X msg 148 347 0;
#X msg 189 347 stop;
#X obj 300 591 vu 15 160 empty empty -1 -8 0 12 #404040 #000000 1 0;
#N canvas 329 161 625 417 vu 0;
#X obj 59 129 env~ 1024;
#X obj 161 111 abs~;
#X obj 161 213 snapshot~;
#X obj 161 256 rmstodb;
#X obj 161 21 inlet~;
#X obj 161 288 - 100;
#X obj 59 287 - 100;
#X obj 59 361 outlet;
#X obj 161 361 outlet;
#X text 344 307 Check the help file of env~ and slop~ for more details., f 31;
#X obj 239 89 expr 1000 / $f1;
#X floatatom 239 117 5 0 0 0 - - - 0;
#X obj 161 146 slop~ 0 0 0 0 1e+09;
#X obj 239 18 inlet;
#X floatatom 239 57 5 0 0 0 - - - 0;
#X text 359 89 convert to hz;
#X text 282 118 hz;
#X text 284 57 peak decay time in ms;
#X obj 59 171 t f b;
#X text 345 132 The env~ object is dedicated to RMS analysis. Its output is in dB (0-100 range \, pd style) but needs to be converted to dBFS (and we do that by simply subtracting 100)., f 31;
#X text 345 225 The slop~ object is used here for peak detection. We need to convert the output to dB with rmstodb and also subtract by 100 to convert it to dBFS., f 31;
#X connect 0 0 18 0;
#X connect 1 0 12 0;
#X connect 2 0 3 0;
#X connect 3 0 5 0;
#X connect 4 0 0 0;
#X connect 4 0 1 0;
#X connect 5 0 8 0;
#X connect 6 0 7 0;
#X connect 10 0 11 0;
#X connect 11 0 12 3;
#X connect 12 0 2 0;
#X connect 13 0 14 0;
#X connect 14 0 10 0;
#X connect 18 0 6 0;
#X connect 18 1 2 0;
#X restore 277 548 pd vu;
#X floatatom 309 524 6 0 1000 0 - decay - 0;
#X msg 349 245 \; pd dsp 1;
#X text 421 247 <-- start DSP automatically, f 13;
#X obj 116 230 t b b;
#X obj 148 324 spigot;
#X obj 187 296 tgl 20 0 empty empty empty 0 -10 0 12 #fcfcfc #000000 #000000 0 1;
#X msg 223 265 1;
#X msg 187 265 0;
#X obj 62 231 bng 20 250 50 0 empty empty empty 0 -10 0 12 #fcfcfc #000000 #000000;
#X obj 289 217 t b b b b;
#X text 217 143 init dsp out \, store soundfile in memory \, set volume \, allow playback, f 67;
#X obj 149 412 *~ 2;
#X obj 149 476 hip~;
#X floatatom 206 471 5 10 10000 0 - - - 0;
#X obj 312 435 pipe 1000;
#X text 293 454 1 second delay before retrig possible;
#X msg 329 310 read -resize ./karakii-final.wav karakii;
#X obj 198 418 loadbang;
#X msg 272 386 level 97;
#X msg 203 444 375;
#X connect 0 0 16 0;
#X connect 3 0 4 0;
#X connect 4 0 22 0;
#X connect 6 0 29 0;
#X connect 7 0 24 0;
#X connect 7 1 27 0;
#X connect 9 0 7 0;
#X connect 10 0 7 0;
#X connect 12 0 11 0;
#X connect 12 1 11 1;
#X connect 13 0 12 1;
#X connect 16 0 20 0;
#X connect 16 1 17 0;
#X connect 17 0 9 0;
#X connect 18 0 17 1;
#X connect 19 0 18 0;
#X connect 20 0 18 0;
#X connect 21 0 16 0;
#X connect 22 0 19 0;
#X connect 22 1 31 0;
#X connect 22 2 6 0;
#X connect 22 3 14 0;
#X connect 24 0 12 0;
#X connect 24 0 25 0;
#X connect 25 0 8 0;
#X connect 25 0 8 1;
#X connect 26 0 25 1;
#X connect 27 0 19 0;
#X connect 29 0 5 0;
#X connect 30 0 32 0;
#X connect 31 0 8 0;
#X connect 32 0 26 0;
#X restore 494 83 pd audio;
#X obj 494 59 bng 20 250 50 0 empty empty empty 0 -10 0 12 #fcfcfc #000000 #000000;
#X obj 442 449 s beenHit;
#X obj 740 13 r beenHit;
#X obj 494 32 r beenHit;
#X obj 851 276 random 2;
#X obj 891 247 bng 20 250 50 0 empty empty empty 0 -10 0 12 #fcfcfc #000000 #000000;
#X obj 851 301 select 0;
#X msg 903 330 -1 \, 20 5000;
#X msg 815 330 1 \, -20 5000;
#X text 924 294 reset to random directoin;
#X text 448 13 Audio Logic when hit;
#X msg 565 432 12;
#N canvas 730 48 682 789 send_osc 0;
#X text 131 110 red 0-255 -> -0.1;
#X text 283 109 blue 0-255 -> 1.5;
#X text 203 161 0.7 midway;
#X obj 131 159 / 255;
#X obj 287 159 / 255;
#X obj 131 134 r osc_red;
#X obj 287 134 r osc_blue;
#X obj 223 251 -;
#X obj 172 186 t f b;
#X obj 287 184 t f b;
#X obj 185 214 f;
#X obj 269 218 f;
#X obj 223 276 + 1;
#X floatatom 281 384 5 0 0 0 - - - 0;
#X text 278 365 send to loacl host os listener- target wind_xy;
#X obj 132 547 delay 1000;
#X obj 59 634 netsend -u -b;
#X obj 132 517 loadbang;
#X obj 59 516 oscformat;
#X msg 185 460 set wind_xy;
#X obj 219 380 t f b;
#X obj 223 302 / 1.3;
#X obj 223 327 - 0.1;
#X obj 35 451 oscformat;
#X obj 24 681 oscparse;
#X listbox 24 706 20 0 0 0 - - - 0;
#X msg 49 379 set fader_5;
#X msg 157 608 disconnect;
#X msg 132 574 connect 192.168.41.240 8009;
#X text 76 291 rest at 0.6;
#X obj 12 187 r beenHit;
#X obj 88 188 r afkOver;
#X msg 12 212 0.85;
#X floatatom 12 295 5 0 0 0 - - - 0;
#X obj 12 270 line;
#X msg 88 212 0.6;
#X obj 12 319 t f b;
#X obj 12 237 pack f 500;
#X obj 89 237 pack f 3000;
#X connect 3 0 8 0;
#X connect 4 0 9 0;
#X connect 5 0 3 0;
#X connect 6 0 4 0;
#X connect 7 0 12 0;
#X connect 8 0 10 0;
#X connect 8 1 11 0;
#X connect 9 0 11 0;
#X connect 9 1 10 0;
#X connect 10 0 7 0;
#X connect 11 0 7 1;
#X connect 12 0 21 0;
#X connect 15 0 28 0;
#X connect 17 0 15 0;
#X connect 18 0 24 0;
#X connect 18 0 16 0;
#X connect 19 0 18 0;
#X connect 20 0 18 0;
#X connect 20 1 19 0;
#X connect 21 0 22 0;
#X connect 22 0 20 0;
#X connect 22 0 13 0;
#X connect 23 0 16 0;
#X connect 23 0 24 0;
#X connect 24 0 25 0;
#X connect 26 0 23 0;
#X connect 27 0 16 0;
#X connect 28 0 16 0;
#X connect 30 0 32 0;
#X connect 31 0 35 0;
#X connect 32 0 37 0;
#X connect 33 0 36 0;
#X connect 34 0 33 0;
#X connect 35 0 38 0;
#X connect 36 0 23 0;
#X connect 36 1 26 0;
#X connect 37 0 34 0;
#X connect 38 0 34 0;
#X restore 593 791 pd send_osc;
#X text 738 -9 AFK counter;
#X text 29 95 left and right values from pulses recieved here;
#X text 418 266 left and right are flipped in exhibit;
#X obj 308 939 s osc_red;
#X obj 468 942 s osc_blue;
#X obj 926 273 s afkOver;
#X obj 805 247 t b b b b;
#X obj 126 505 s warmHit;
#X obj 378 502 s coldHit;
#X obj 308 473 t b b b;
#X obj 598 828 r coldHit;
#X obj 618 874 r warmHit;
#X obj 684 912 r afkOver;
#N canvas 508 29 720 431 makecsv 1;
#X floatatom 195 178 0 0 0 0 - - - 0;
#X floatatom 187 201 0 0 0 0 - - - 0;
#X floatatom 179 224 0 0 0 0 - - - 0;
#X obj 179 120 time;
#X floatatom 204 155 0 0 0 0 - - - 0;
#X text 259 158 msec;
#X text 260 180 sec;
#X text 261 201 min;
#X text 260 223 hours;
#X obj 37 125 date, f 8;
#X floatatom 58 152 0 0 0 0 - - - 0;
#X floatatom 47 176 0 0 0 0 - - - 0;
#X floatatom 37 203 0 0 0 0 - - - 0;
#X text 91 175 month;
#X text 98 201 year;
#X text 90 151 day of month;
#X obj 17 85 t b b b b;
#X obj 17 60 bng 19 250 50 0 empty empty empty 0 -10 0 12 #fcfcfc #000000 #000000;
#X obj 37 227 pack f f f;
#X obj 179 248 pack f f f f;
#X listbox 222 333 30 0 0 0 - - - 0;
#X obj 37 276 list append;
#X obj 222 304 list append;
#X obj 200 17 inlet;
#X msg 274 15 warm;
#X msg 332 15 cold;
#X obj 296 126 symbol;
#X obj 200 41 t b a;
#X text 44 18 cold or warm message;
#X obj 427 140 text define -k csvTest;
#A set year month day hour minute second millisecond direction \; 2024 9 16 11 7 52 647 cold \; 2024 9 16 11 7 52 817 cold \; 2024 9 16 11 7 52 997 cold \; 2024 9 16 11 7 53 167 cold \; 2024 9 16 11 7 53 317 cold \; 2024 9 16 11 7 54 697 warm \; 2024 9 16 11 7 54 857 warm \; 2024 9 16 11 7 55 38 warm \; 2024 9 16 11 7 55 207 warm \; 2024 9 16 11 7 55 417 warm \; 2024 9 16 11 7 55 657 warm \; 2024 9 16 11 7 55 927 warm \; 2024 9 16 11 7 56 226 warm \; 2024 9 16 11 7 56 527 warm \; 2024 9 16 11 7 56 737 warm \; 2024 9 16 11 7 56 987 warm \; 2024 9 16 11 7 57 897 cold \; 2024 9 16 11 7 58 77 cold \; 2024 9 16 11 7 58 247 cold \; 2024 9 16 11 7 58 437 cold \; 2024 9 16 11 7 58 647 cold \; 2024 9 16 11 7 58 847 cold \; 2024 9 16 11 7 59 57 cold \; 2024 9 16 11 7 59 247 cold \; 2024 9 16 11 7 59 457 cold \; 2024 9 16 11 7 59 667 cold \; 2024 9 16 11 7 59 878 cold \; 2024 9 16 11 8 0 68 cold \; 2024 9 16 11 8 0 907 warm \; 2024 9 16 11 8 1 77 warm \; 2024 9 16 11 8 1 247 warm \; 2024 9 16 11 8 1 417 warm \; 2024 9 16 11 8 1 598 warm \; 2024 9 16 11 8 2 417 cold \; 2024 9 16 11 8 2 578 cold \; 2024 9 16 11 8 2 747 cold \; 2024 9 16 11 8 2 907 cold \; 2024 9 16 11 8 3 777 warm \; 2024 9 16 11 8 3 936 warm \; 2024 9 16 11 8 4 117 warm \; 2024 9 16 11 8 4 347 warm \; 2024 9 16 11 8 4 527 warm \; 2024 9 16 11 8 4 696 warm \; 2024 9 16 11 8 4 877 warm \; 2024 9 16 11 8 5 58 warm \; 2024 9 16 11 8 5 228 warm \; 2024 9 16 11 8 5 397 warm \; 2024 9 16 11 8 5 568 warm \; 2024 9 16 11 8 5 767 warm \; 2024 9 16 11 8 6 567 cold \; 2024 9 16 11 8 6 737 cold \; 2024 9 16 11 8 6 887 cold \; 2024 9 16 11 8 7 66 cold \; 2024 9 16 11 8 7 236 cold \; 2024 9 16 11 8 7 417 cold \; 2024 9 16 11 8 7 578 cold \; 2024 9 16 11 8 7 766 cold \; 2024 9 16 11 8 7 997 cold \; 2024 9 16 11 8 40 256 warm \; 2024 9 16 11 8 40 397 warm \; 2024 9 16 11 8 40 547 warm \; 2024 9 16 11 8 40 697 warm \; 2024 9 16 11 8 40 837 warm \; 2024 9 16 11 8 41 636 cold \; 2024 9 16 11 8 41 796 cold \; 2024 9 16 11 8 41 937 cold \; 2024 9 16 11 8 42 107 cold \; 2024 9 16 11 8 42 266 cold \; 2024 9 16 11 8 42 556 cold \; 2024 9 16 11 8 42 747 cold \; 2024 9 16 11 8 42 897 cold \; 2024 9 16 11 8 43 137 cold \; 2024 9 16 11 8 43 366 cold \; 2024 9 16 11 8 44 157 warm \; 2024 9 16 11 8 44 336 warm \; 2024 9 16 11 8 44 506 warm \; 2024 9 16 11 8 44 657 warm \; 2024 9 16 11 8 44 806 warm \; 2024 9 16 11 8 44 978 warm \; 2024 9 16 11 8 45 948 cold \; 2024 9 16 11 8 46 127 cold \;;
#X msg 574 103 click;
#X msg 638 102 close;
#X msg 427 59 write ./csvTest.csv;
#X msg 434 103 read ./csvTest.csv;
#X obj 222 389 text insert csvTest 1e+09;
#X obj 434 81 loadbang;
#X obj 427 21 inlet;
#X text 432 0 save after afk initiated;
#X connect 0 0 19 2;
#X connect 1 0 19 1;
#X connect 2 0 19 0;
#X connect 3 0 2 0;
#X connect 3 1 1 0;
#X connect 3 2 0 0;
#X connect 3 3 4 0;
#X connect 4 0 19 3;
#X connect 9 0 12 0;
#X connect 9 1 11 0;
#X connect 9 2 10 0;
#X connect 10 0 18 2;
#X connect 11 0 18 1;
#X connect 12 0 18 0;
#X connect 16 1 9 0;
#X connect 16 2 3 0;
#X connect 17 0 16 0;
#X connect 18 0 21 0;
#X connect 19 0 21 1;
#X connect 20 0 34 0;
#X connect 21 0 22 0;
#X connect 22 0 20 0;
#X connect 23 0 27 0;
#X connect 24 0 27 0;
#X connect 25 0 27 0;
#X connect 26 0 22 1;
#X connect 27 0 17 0;
#X connect 27 1 26 0;
#X connect 30 0 29 0;
#X connect 31 0 29 0;
#X connect 32 0 29 0;
#X connect 33 0 29 0;
#X connect 35 0 33 0;
#X connect 36 0 32 0;
#X restore 617 937 pd makecsv;
#X msg 598 852 cold;
#X msg 618 898 warm;
#X connect 0 0 7 0;
#X connect 1 0 8 0;
#X connect 2 0 0 0;
#X connect 2 0 47 0;
#X connect 2 0 102 0;
#X connect 3 0 5 0;
#X connect 4 0 13 0;
#X connect 5 0 14 0;
#X connect 6 0 5 1;
#X connect 7 0 3 0;
#X connect 7 0 121 0;
#X connect 7 1 6 0;
#X connect 8 0 0 1;
#X connect 8 1 9 1;
#X connect 9 0 123 0;
#X connect 10 0 9 0;
#X connect 10 0 48 0;
#X connect 10 0 102 0;
#X connect 11 0 5 1;
#X connect 12 0 24 0;
#X connect 13 0 12 0;
#X connect 14 0 15 0;
#X connect 15 0 3 1;
#X connect 15 0 4 0;
#X connect 22 0 2 0;
#X connect 23 0 10 0;
#X connect 24 0 26 0;
#X connect 26 0 39 0;
#X connect 26 0 74 0;
#X connect 27 0 43 0;
#X connect 30 0 47 1;
#X connect 30 0 117 0;
#X connect 31 0 37 0;
#X connect 32 0 27 0;
#X connect 33 0 32 0;
#X connect 33 1 34 0;
#X connect 34 0 40 0;
#X connect 35 0 48 1;
#X connect 35 0 118 0;
#X connect 36 0 38 0;
#X connect 37 0 61 0;
#X connect 38 0 60 0;
#X connect 39 0 41 0;
#X connect 39 1 33 0;
#X connect 40 0 35 0;
#X connect 41 0 42 0;
#X connect 42 0 27 0;
#X connect 42 0 34 0;
#X connect 43 0 30 0;
#X connect 44 0 68 0;
#X connect 45 0 1 0;
#X connect 47 0 76 0;
#X connect 48 0 77 0;
#X connect 50 0 46 0;
#X connect 51 0 52 0;
#X connect 51 1 57 0;
#X connect 55 0 53 0;
#X connect 55 1 58 0;
#X connect 56 0 54 0;
#X connect 56 1 59 0;
#X connect 57 0 51 0;
#X connect 58 0 55 0;
#X connect 59 0 56 0;
#X connect 62 0 82 0;
#X connect 63 0 14 1;
#X connect 64 0 12 0;
#X connect 66 0 69 0;
#X connect 67 0 75 0;
#X connect 68 0 62 0;
#X connect 68 1 45 0;
#X connect 69 0 63 0;
#X connect 69 1 15 1;
#X connect 69 1 24 1;
#X connect 69 1 79 1;
#X connect 69 2 13 1;
#X connect 69 3 67 0;
#X connect 69 4 71 0;
#X connect 70 0 73 0;
#X connect 70 0 26 1;
#X connect 71 0 72 0;
#X connect 71 1 70 1;
#X connect 72 0 70 0;
#X connect 75 0 64 0;
#X connect 76 0 31 0;
#X connect 77 0 36 0;
#X connect 78 0 3 0;
#X connect 79 0 3 0;
#X connect 80 0 79 0;
#X connect 81 0 112 0;
#X connect 82 0 79 0;
#X connect 82 1 83 0;
#X connect 84 0 31 0;
#X connect 84 0 36 0;
#X connect 85 0 86 0;
#X connect 86 0 87 0;
#X connect 87 0 88 0;
#X connect 87 0 86 1;
#X connect 88 0 99 0;
#X connect 89 0 85 0;
#X connect 90 0 120 0;
#X connect 91 0 93 0;
#X connect 92 0 89 0;
#X connect 93 0 89 0;
#X connect 93 1 86 0;
#X connect 94 0 92 0;
#X connect 94 1 95 0;
#X connect 95 0 86 0;
#X connect 96 0 97 0;
#X connect 97 0 3 0;
#X connect 98 0 96 0;
#X connect 99 0 90 0;
#X connect 101 0 100 0;
#X connect 103 0 94 0;
#X connect 104 0 101 0;
#X connect 105 0 107 0;
#X connect 106 0 105 0;
#X connect 107 0 109 0;
#X connect 107 1 108 0;
#X connect 108 0 98 0;
#X connect 109 0 98 0;
#X connect 112 0 66 0;
#X connect 120 1 91 0;
#X connect 120 2 105 0;
#X connect 120 3 119 0;
#X connect 123 0 3 0;
#X connect 123 1 11 0;
#X connect 123 2 122 0;
#X connect 124 0 128 0;
#X connect 125 0 129 0;
#X connect 126 0 127 1;
#X connect 128 0 127 0;
#X connect 129 0 127 0;
